<?xml version="1.0" standalone="no"?>
<!DOCTYPE svg PUBLIC "-//W3C//DTD SVG 20010904//EN"
 "http://www.w3.org/TR/2001/REC-SVG-20010904/DTD/svg10.dtd">
<svg version="1.0" xmlns="http://www.w3.org/2000/svg"
 width="822.000000pt" height="766.000000pt" viewBox="0 0 822.000000 766.000000"
 preserveAspectRatio="xMidYMid meet">
<metadata>
Created by potrace 1.16, written by Peter Selinger 2001-2019
</metadata>
<g transform="translate(0.000000,766.000000) scale(0.100000,-0.100000)"
fill="#000000" stroke="none">
<path d="M3657 7543 c-4 -54 -7 -146 -7 -205 l0 -107 -47 -6 c-27 -4 -104 -15
-173 -25 -69 -10 -128 -16 -131 -12 -4 4 -26 91 -50 195 -24 103 -45 191 -49
196 -5 9 -454 -90 -467 -103 -4 -3 10 -80 31 -170 21 -91 39 -172 39 -182 2
-13 -17 -25 -73 -46 -41 -15 -127 -51 -190 -78 -63 -28 -120 -50 -127 -50 -6
0 -51 74 -99 165 -49 91 -93 165 -98 165 -8 0 -97 -47 -356 -188 -25 -13 -50
-29 -56 -36 -8 -8 11 -50 72 -161 46 -82 83 -155 84 -161 0 -5 -27 -29 -61
-53 -33 -23 -105 -78 -159 -122 -54 -43 -103 -79 -108 -79 -6 0 -67 59 -136
132 l-126 131 -31 -29 c-17 -16 -43 -40 -58 -54 -131 -123 -261 -254 -259
-261 2 -4 54 -59 115 -122 62 -63 113 -119 113 -126 0 -6 -21 -40 -47 -74 -27
-34 -70 -97 -98 -139 -27 -43 -56 -78 -64 -78 -7 0 -79 41 -158 90 -80 49
-149 90 -153 90 -12 0 -261 -400 -255 -410 2 -4 66 -45 140 -91 75 -46 138
-86 141 -90 2 -4 -16 -49 -41 -102 -24 -52 -61 -143 -81 -201 -20 -58 -40
-106 -43 -106 -4 0 -75 20 -159 45 -83 25 -160 45 -170 45 -15 0 -29 -36 -81
-216 -35 -119 -64 -223 -65 -231 -1 -11 39 -27 149 -60 83 -24 154 -48 158
-52 5 -5 1 -44 -8 -87 -8 -43 -24 -135 -34 -204 l-17 -125 -166 -3 -165 -2 -6
-128 c-4 -70 -7 -180 -7 -244 l0 -118 154 0 154 0 6 -62 c4 -35 14 -121 23
-191 8 -70 14 -129 12 -130 -2 -2 -69 -18 -149 -36 -80 -18 -147 -35 -148 -36
-2 -2 21 -109 51 -237 l54 -233 29 3 c16 2 84 17 150 33 67 16 124 29 127 29
3 0 15 -30 28 -67 12 -38 46 -130 75 -206 30 -77 54 -142 54 -146 0 -4 -57
-39 -126 -77 -69 -38 -128 -74 -131 -81 -4 -11 213 -423 224 -423 2 0 57 28
121 63 64 34 119 63 123 65 3 1 59 -72 123 -162 65 -91 124 -170 132 -177 13
-11 0 -28 -87 -115 l-102 -103 168 -176 169 -176 75 74 c92 90 123 117 131
117 4 0 36 -22 72 -50 36 -27 105 -75 153 -106 51 -33 84 -61 82 -69 -3 -7
-37 -63 -76 -126 -39 -62 -71 -118 -71 -124 0 -12 377 -247 399 -249 11 -1
149 200 164 239 2 5 57 -12 123 -37 65 -25 161 -59 212 -74 65 -20 92 -32 92
-43 0 -9 -20 -83 -45 -165 -25 -82 -44 -150 -43 -152 3 -2 244 -75 381 -115
46 -13 81 -18 86 -13 4 5 13 29 20 54 48 174 62 211 79 206 40 -13 302 -64
360 -71 l62 -7 0 -138 0 -137 238 -5 c130 -3 240 -4 245 -1 4 2 7 74 7 159 0
115 3 156 13 158 6 2 90 11 186 20 122 11 177 13 181 6 4 -6 21 -74 39 -150
27 -116 36 -140 51 -140 27 0 444 100 451 108 3 4 -7 61 -23 127 -16 66 -27
126 -26 133 2 7 48 30 103 51 55 21 147 59 205 85 57 25 107 46 111 46 3 0 25
-37 49 -82 53 -103 91 -168 96 -168 7 0 408 221 417 229 6 6 -82 182 -119 236
-8 11 -14 23 -14 26 0 4 30 29 68 55 37 27 113 86 170 131 57 46 106 83 110
83 4 0 54 -50 112 -110 l105 -111 175 169 175 169 -52 59 c-28 32 -76 83 -107
113 l-55 54 27 36 c15 20 32 41 37 47 6 6 42 58 80 117 39 59 73 107 77 107 4
0 68 -38 143 -85 75 -47 140 -83 145 -80 4 2 23 31 42 62 20 32 74 121 122
197 47 77 86 143 86 146 0 4 -39 31 -87 60 -49 29 -111 68 -140 86 l-51 33 38
88 c21 48 57 141 80 205 24 65 48 118 53 118 6 0 74 -19 151 -41 78 -23 150
-44 162 -46 19 -4 26 12 82 204 34 114 64 219 67 233 6 25 4 26 -159 74 -92
27 -166 52 -166 56 0 3 11 78 24 166 14 87 27 181 31 208 l7 48 172 -7 173 -7
6 77 c4 43 7 153 7 245 l0 167 -177 7 c-97 4 -180 9 -185 12 -4 3 -8 17 -8 32
0 15 -11 92 -25 171 -13 80 -22 148 -19 153 3 4 13 8 22 8 25 1 330 75 337 82
6 5 -93 455 -102 467 -2 2 -85 -15 -184 -38 -100 -23 -183 -41 -185 -39 -2 2
-21 53 -42 113 -22 61 -56 149 -76 197 -20 48 -36 89 -36 92 0 2 72 43 160 91
88 47 162 89 164 93 7 12 -218 421 -232 422 -7 0 -82 -38 -167 -85 -85 -47
-159 -85 -163 -85 -5 0 -31 32 -58 72 -27 40 -78 108 -113 153 -35 44 -68 86
-74 93 -8 10 24 46 129 146 l138 132 -20 26 c-11 14 -86 94 -167 178 l-146
153 -129 -122 c-71 -66 -132 -121 -136 -121 -4 0 -41 26 -84 58 -42 33 -105
78 -139 101 -35 23 -63 47 -63 53 0 7 43 81 95 166 53 85 95 155 93 157 -8 6
-376 233 -394 243 -19 10 -27 -1 -115 -143 -71 -117 -99 -154 -115 -155 -11 0
-24 4 -30 9 -5 4 -79 34 -164 66 -85 32 -165 61 -177 66 -18 7 -21 12 -14 36
83 280 101 347 94 354 -4 4 -73 26 -153 49 -80 23 -181 52 -225 65 -44 13 -81
23 -81 22 -1 -1 -27 -87 -57 -190 -30 -104 -58 -191 -60 -194 -3 -2 -52 4
-109 16 -56 11 -134 25 -173 31 -38 6 -83 13 -99 16 l-29 6 5 195 c4 137 2
196 -6 198 -6 2 -115 6 -242 10 l-231 6 -6 -98z m264 -13 l120 0 -1 -191 c-1
-105 0 -192 2 -194 2 -2 55 -11 118 -20 92 -13 324 -57 435 -82 25 -5 31 7 85
204 24 83 46 157 50 163 11 18 270 -59 270 -80 0 -8 -23 -93 -51 -188 -29 -95
-50 -174 -48 -177 3 -2 68 -26 144 -53 176 -62 329 -123 378 -152 l38 -23 16
23 c9 12 51 81 95 154 44 72 81 133 83 135 5 4 233 -138 241 -150 3 -5 -4 -21
-15 -36 -43 -62 -171 -271 -171 -281 0 -5 37 -33 83 -63 106 -69 217 -150 288
-211 31 -26 60 -48 64 -48 4 0 59 52 123 115 63 63 121 115 128 115 13 0 194
-186 194 -199 0 -5 -19 -26 -42 -47 -24 -20 -85 -77 -136 -126 l-94 -89 46
-53 c87 -102 178 -222 243 -318 36 -54 70 -98 75 -98 6 0 80 38 166 85 85 47
156 85 158 85 4 0 134 -241 134 -248 0 -4 -67 -43 -148 -86 -81 -44 -152 -83
-159 -88 -9 -7 -3 -30 24 -91 49 -113 149 -382 163 -439 14 -54 22 -57 92 -34
46 15 190 50 250 61 30 6 37 4 42 -12 8 -26 56 -244 56 -254 0 -4 -33 -15 -72
-24 -117 -26 -283 -67 -286 -70 -2 -2 10 -86 27 -187 17 -101 34 -221 39 -268
7 -83 8 -85 32 -82 14 2 94 0 179 -3 l153 -7 -5 -142 -5 -141 -170 4 -169 3
-12 -98 c-7 -55 -25 -184 -42 -288 -35 -225 -35 -226 -10 -226 10 0 47 -9 82
-19 35 -11 97 -29 137 -41 51 -15 72 -26 72 -37 0 -13 -68 -254 -74 -260 -2
-3 -105 27 -234 68 -51 16 -94 29 -96 29 -3 0 -21 -51 -42 -112 -45 -136 -125
-333 -165 -407 -15 -29 -27 -57 -24 -61 2 -3 63 -42 135 -85 71 -43 130 -83
130 -88 0 -13 -141 -237 -149 -237 -3 0 -19 9 -36 19 -201 126 -241 151 -246
151 -3 0 -15 -18 -27 -39 -42 -75 -174 -266 -234 -339 l-60 -72 101 -107 c56
-58 101 -109 101 -112 0 -7 -187 -184 -199 -189 -4 -1 -53 45 -110 103 -57 58
-105 105 -107 105 -2 0 -47 -36 -100 -81 -114 -96 -278 -219 -340 -255 -24
-14 -44 -31 -44 -36 0 -6 30 -65 67 -131 l66 -120 -23 -17 c-12 -9 -67 -41
-123 -70 -116 -62 -98 -70 -178 82 -29 55 -58 102 -64 104 -6 3 -60 -19 -120
-47 -119 -56 -355 -150 -422 -168 -25 -7 -43 -18 -43 -26 0 -7 13 -67 30 -131
16 -65 27 -120 25 -122 -5 -6 -245 -62 -264 -62 -13 0 -23 28 -49 142 -18 78
-36 145 -40 149 -4 4 -38 1 -77 -6 -67 -13 -201 -27 -387 -41 l-88 -6 0 -154
0 -154 -145 0 -145 0 0 134 0 134 -72 7 c-103 9 -273 40 -413 74 -66 16 -123
27 -126 23 -3 -4 -21 -61 -39 -127 -18 -66 -36 -123 -39 -127 -8 -9 -264 66
-268 78 -2 5 17 79 42 164 24 85 42 156 40 159 -3 2 -58 20 -123 39 -141 41
-282 92 -379 138 -39 19 -75 34 -80 34 -4 0 -39 -52 -76 -116 -37 -63 -74
-117 -81 -120 -7 -3 -66 27 -130 67 l-116 71 22 37 c12 20 49 79 81 130 57 90
59 96 41 108 -10 8 -86 58 -169 112 -82 54 -176 122 -208 150 l-59 51 -46 -39
c-26 -22 -69 -62 -97 -90 -27 -28 -54 -50 -60 -50 -5 1 -53 46 -105 101 l-95
99 103 95 102 96 -49 56 c-67 79 -213 280 -263 364 -23 39 -47 72 -54 75 -7 3
-63 -23 -124 -56 -61 -34 -114 -61 -119 -61 -8 0 -141 231 -141 244 0 3 17 14
38 24 36 18 214 113 221 118 1 2 -31 87 -72 191 -72 183 -104 273 -127 361 -6
23 -15 42 -19 42 -5 0 -62 -13 -127 -29 -66 -16 -131 -32 -145 -35 -25 -5 -26
-5 -58 131 -17 75 -28 139 -24 143 4 4 67 19 138 34 163 35 157 33 151 53 -14
46 -47 311 -53 421 l-6 122 -154 0 -153 0 0 84 c0 45 3 111 7 146 l6 62 158
-4 158 -4 6 46 c23 173 57 389 75 464 11 49 19 90 17 92 -4 4 -243 72 -285 81
-12 3 -22 12 -22 21 0 15 69 254 75 260 2 2 78 -18 169 -44 101 -29 170 -44
175 -38 4 5 29 72 55 149 26 77 77 200 112 274 36 73 62 137 57 142 -4 4 -64
42 -133 84 -69 42 -129 80 -133 85 -10 9 130 240 145 240 10 0 159 -89 234
-141 45 -31 94 -47 94 -31 0 17 176 275 240 350 53 63 60 76 49 90 -7 9 -60
66 -118 125 l-106 108 105 100 105 100 130 -137 c120 -125 132 -135 145 -119
26 31 302 248 380 299 41 27 76 50 78 51 2 2 -11 27 -27 56 -84 150 -143 260
-140 263 23 19 246 133 251 128 3 -4 46 -80 93 -169 48 -90 89 -163 92 -163 2
0 34 15 71 34 88 44 384 161 445 177 26 6 47 17 47 23 0 7 -18 83 -40 171 -22
88 -40 166 -40 175 0 13 29 23 133 47 72 17 135 28 139 24 4 -3 26 -89 49
-191 23 -102 45 -189 49 -193 4 -5 83 4 176 18 93 15 209 30 259 34 l90 6 5
190 c3 105 9 196 14 203 4 7 15 11 23 8 8 -3 68 -6 134 -6z"/>
<path d="M4505 6941 c-27 -11 -51 -40 -64 -74 -8 -19 -17 -27 -36 -27 -16 0
-25 -6 -25 -15 0 -8 9 -15 20 -15 24 0 25 -11 6 -106 -16 -84 -21 -94 -47 -94
-10 0 -19 -4 -19 -9 0 -9 99 -31 134 -30 20 0 20 1 -1 11 -31 15 -31 47 2 194
4 17 10 20 36 16 24 -3 30 -1 27 9 -3 8 -14 15 -26 17 -24 4 -29 32 -12 76 13
35 44 33 70 -4 22 -31 50 -31 50 0 0 38 -71 70 -115 51z"/>
<path d="M3416 6916 c-3 -14 -18 -38 -32 -55 -24 -29 -25 -31 -6 -31 24 0 29
-12 37 -105 4 -38 13 -80 21 -92 19 -30 55 -29 84 2 27 29 22 43 -9 24 -26
-17 -30 -13 -41 57 -16 96 -13 122 12 126 12 2 23 9 26 17 3 10 -3 12 -25 7
-29 -7 -31 -5 -37 34 -7 45 -21 52 -30 16z"/>
<path d="M3614 6875 c-59 -31 -81 -114 -50 -190 37 -87 159 -85 196 5 13 32 5
56 -10 30 -22 -35 -28 -40 -57 -46 -25 -5 -36 -1 -61 23 -17 15 -32 39 -34 53
-3 24 -1 25 57 28 85 3 105 9 105 32 0 56 -86 95 -146 65z"/>
<path d="M4139 6854 c-61 -39 -79 -149 -33 -203 62 -74 158 -59 203 32 28 58
23 103 -18 149 -34 38 -110 49 -152 22z m91 -14 c41 -22 50 -133 14 -187 -20
-31 -58 -29 -83 3 -37 47 -24 176 18 187 27 8 32 7 51 -3z"/>
<path d="M2960 6818 c0 -12 -9 -38 -20 -56 -25 -40 -25 -45 -1 -37 13 4 21 0
24 -12 42 -152 52 -176 73 -185 29 -13 48 -6 70 27 20 31 11 45 -15 21 -14
-13 -20 -14 -28 -4 -8 11 -53 156 -53 171 0 3 11 8 25 11 36 9 32 30 -5 23
-27 -6 -30 -3 -38 25 -10 38 -32 49 -32 16z"/>
<path d="M3243 6823 c-28 -5 -30 -23 -4 -23 16 0 22 -13 35 -69 9 -39 16 -76
16 -84 0 -20 -33 -47 -59 -47 -26 0 -34 18 -56 123 -17 81 -18 82 -74 71 -36
-8 -41 -21 -9 -26 18 -2 24 -12 31 -48 19 -102 36 -146 62 -158 30 -14 51 -7
86 25 l26 24 6 -21 c6 -22 6 -22 37 -3 45 26 58 43 32 43 -23 0 -30 18 -53
138 -12 66 -14 67 -76 55z"/>
<path d="M4900 6822 c0 -5 7 -12 15 -16 24 -9 17 -43 -39 -181 -50 -123 -54
-130 -79 -128 -54 4 -24 -15 105 -66 l133 -53 33 37 c19 20 32 39 29 41 -2 3
-22 -4 -44 -16 l-39 -20 -62 21 c-40 14 -62 26 -62 36 0 9 10 42 21 75 24 64
21 63 96 32 32 -14 37 -22 34 -56 -4 -38 17 -15 37 39 23 62 22 74 -3 49 -9
-9 -21 -16 -26 -16 -8 0 -90 30 -97 36 -6 4 40 124 47 124 17 0 117 -43 123
-53 4 -7 8 -22 8 -34 0 -35 17 -27 30 13 7 19 10 37 8 38 -1 2 -59 25 -128 52
-69 27 -128 51 -132 52 -5 2 -8 -1 -8 -6z"/>
<path d="M2627 6705 c4 -23 0 -43 -11 -59 -21 -33 -20 -36 5 -33 18 2 27 -12
56 -78 44 -99 49 -105 84 -105 31 0 59 31 59 65 -1 19 -2 19 -20 -3 -11 -13
-24 -21 -30 -17 -5 3 -26 41 -45 83 -33 71 -35 78 -19 89 10 7 21 13 26 13 4
0 8 5 8 11 0 7 -12 9 -33 5 -31 -6 -35 -3 -50 29 -21 45 -37 45 -30 0z"/>
<path d="M2803 6701 c-39 -32 -41 -42 -11 -38 20 2 26 -8 52 -81 27 -80 28
-83 11 -102 -22 -24 -16 -25 52 -3 56 17 65 27 35 35 -13 4 -30 37 -57 112
-21 58 -40 106 -44 106 -3 -1 -21 -13 -38 -29z"/>
<path d="M2540 6603 c-14 -7 -33 -13 -42 -13 -21 0 -58 -46 -58 -72 0 -34 45
-68 89 -68 59 0 91 -15 91 -43 0 -46 -66 -52 -112 -10 -23 20 -24 3 -3 -37 13
-26 19 -29 48 -23 70 13 107 44 107 89 0 47 -38 74 -105 74 -38 0 -56 5 -69
19 -17 18 -17 20 3 40 26 26 41 26 75 0 35 -27 39 -22 18 22 -16 34 -18 35
-42 22z"/>
<path d="M5170 6564 c0 -4 7 -12 15 -18 12 -9 8 -23 -28 -91 -30 -57 -49 -81
-65 -85 -20 -4 -16 -9 33 -33 32 -15 60 -25 64 -21 3 4 0 9 -6 11 -20 7 -16
28 19 98 33 68 55 84 97 70 29 -9 27 -44 -5 -108 -33 -65 -52 -87 -70 -80 -8
3 -14 0 -14 -5 0 -12 100 -65 108 -58 3 3 -1 13 -8 21 -12 14 -7 30 30 105 38
78 42 92 32 115 -14 31 -55 48 -94 40 -23 -6 -27 -4 -22 10 4 10 1 21 -7 26
-16 10 -79 12 -79 3z"/>
<path d="M3540 6489 c-169 -18 -513 -98 -665 -153 -139 -52 -402 -183 -510
-255 -519 -346 -903 -823 -1101 -1369 -129 -357 -185 -760 -155 -1129 56 -698
356 -1319 864 -1787 294 -271 643 -480 997 -596 513 -169 1026 -184 1557 -45
429 112 848 350 1184 672 456 438 737 1007 814 1652 21 171 16 520 -9 689 -90
600 -349 1115 -775 1541 -416 416 -917 669 -1516 767 -118 19 -553 28 -685 13z
m678 -118 c730 -112 1373 -520 1780 -1129 516 -772 584 -1772 177 -2607 -454
-929 -1388 -1496 -2420 -1468 -454 11 -885 135 -1262 362 -216 129 -346 231
-528 415 -414 417 -669 948 -740 1541 -21 173 -16 523 10 685 89 565 346 1071
744 1468 205 204 434 368 694 495 192 95 343 147 566 197 154 34 218 45 381
64 95 11 471 -3 598 -23z"/>
<path d="M2565 5732 c-78 -65 -586 -521 -596 -535 -10 -15 -22 -1948 -14
-2266 l7 -291 133 -93 c73 -50 195 -135 271 -187 75 -52 208 -145 293 -206 86
-60 221 -155 301 -210 80 -56 199 -138 265 -184 484 -337 506 -350 595 -350
95 0 126 17 387 206 93 67 195 139 228 160 33 22 103 70 155 107 52 37 214
150 360 250 318 219 716 502 748 530 l22 20 0 1263 0 1262 -157 134 c-87 73
-178 151 -203 173 -25 23 -97 86 -160 140 -63 55 -117 102 -120 106 -3 3 -15
11 -27 18 -19 10 -46 5 -164 -28 -181 -52 -451 -106 -604 -122 -66 -7 -252
-12 -415 -13 -255 0 -316 3 -450 23 -196 29 -424 72 -609 117 -79 19 -151 34
-160 34 -9 0 -47 -26 -86 -58z m350 -37 c740 -168 1277 -167 1943 5 84 22 161
40 171 40 9 0 62 -39 117 -88 232 -205 443 -390 483 -423 l44 -36 -2 -1254
c-2 -873 -6 -1258 -13 -1267 -6 -7 -43 -34 -82 -60 -39 -26 -93 -64 -121 -83
-58 -41 -122 -85 -455 -314 -135 -93 -317 -219 -405 -280 -350 -244 -637 -441
-668 -460 -24 -15 -49 -20 -102 -20 -88 0 -90 1 -353 185 -236 165 -324 226
-437 304 -106 73 -218 150 -605 419 -179 124 -349 242 -377 262 l-53 36 0
1254 0 1254 23 24 c20 22 466 425 575 520 24 20 51 37 60 37 9 0 125 -25 257
-55z"/>
<path d="M2843 5534 c-8 -22 5 -44 25 -44 21 0 72 -36 72 -51 0 -5 -52 -9
-118 -9 -65 0 -122 -3 -125 -7 -11 -10 24 -43 45 -43 25 0 23 -36 -3 -50 -20
-11 -20 -12 -2 -32 10 -11 26 -25 37 -30 27 -15 46 14 46 70 0 36 3 43 18 40
14 -3 17 -16 20 -85 2 -70 6 -84 23 -93 25 -14 28 -6 31 95 3 67 6 80 21 83
15 3 17 -5 17 -71 0 -58 4 -80 18 -97 31 -38 42 -17 42 81 0 82 1 89 20 89 18
0 20 -7 20 -78 0 -64 4 -82 18 -95 35 -32 42 -21 42 66 0 51 5 88 12 95 14 14
128 16 128 3 0 -5 -17 -7 -39 -4 -72 10 -108 -61 -56 -112 13 -14 30 -25 37
-26 56 -3 69 -7 86 -22 10 -9 21 -17 25 -17 3 0 8 42 9 93 l3 92 58 3 c35 2
57 -1 57 -8 0 -5 -13 -10 -28 -10 -55 0 -77 -52 -47 -110 17 -33 43 -50 76
-50 13 0 35 -12 51 -27 23 -22 28 -24 33 -10 4 8 2 24 -4 36 -6 11 -11 31 -11
45 0 38 -34 52 -61 25 -25 -25 -52 -18 -47 13 2 16 11 24 28 26 58 6 67 12 73
42 4 17 13 30 21 30 23 0 28 17 10 34 -12 13 -38 16 -116 16 l-100 0 5 30 c8
37 -19 57 -45 34 -14 -14 -20 -13 -57 5 -47 24 -113 27 -130 7 -7 -8 -16 -27
-20 -43 -6 -22 -14 -29 -38 -31 -26 -3 -37 5 -77 51 -47 55 -93 78 -103 51z"/>
<path d="M4870 5485 c-10 -12 -10 -19 -2 -27 23 -23 12 -28 -55 -29 -38 0 -77
-4 -87 -8 -18 -7 -17 -9 8 -28 21 -17 26 -29 26 -62 0 -52 34 -91 79 -91 22 0
35 -7 47 -25 31 -48 44 -32 44 54 0 111 0 111 75 111 35 0 67 -4 70 -10 4 -6
-10 -10 -35 -10 -58 0 -80 -14 -80 -51 0 -31 45 -119 60 -119 19 0 20 21 4 55
-22 47 -13 67 28 63 31 -3 33 -5 36 -48 4 -47 16 -70 38 -70 11 0 14 20 14 89
0 80 2 90 23 105 22 15 22 16 3 31 -15 12 -48 15 -145 15 -107 1 -123 3 -108
14 22 17 22 33 -2 46 -25 13 -26 13 -41 -5z"/>
<path d="M3682 5424 c-32 -8 -24 -38 12 -44 l28 -5 -21 -19 c-52 -47 3 -145
75 -133 24 4 37 0 50 -14 30 -33 39 -17 44 77 l5 89 179 3 c105 1 184 -2 189
-7 15 -15 -57 -25 -91 -13 -19 6 -47 7 -82 0 -37 -7 -61 -6 -81 2 -34 15 -65
6 -85 -25 -14 -21 -14 -27 1 -57 24 -46 65 -88 88 -88 17 0 17 2 -5 31 -13 17
-27 37 -33 45 -7 10 -5 19 8 31 9 10 17 12 17 6 0 -6 7 -19 16 -28 15 -14 18
-14 40 0 22 14 24 14 35 -8 17 -32 61 -77 76 -77 19 0 16 24 -7 45 -21 19 -27
60 -11 70 6 3 15 -4 21 -15 13 -24 42 -26 60 -5 22 27 40 18 40 -21 0 -42 15
-74 35 -74 12 0 15 17 15 84 0 50 4 88 11 91 18 11 61 -36 55 -61 -4 -14 3
-29 24 -49 28 -27 31 -27 48 -12 29 26 55 21 72 -16 8 -17 23 -33 32 -35 15
-3 18 8 20 90 3 88 4 93 26 96 26 4 28 14 6 33 -15 13 -154 18 -254 10 -14 -1
-162 0 -330 3 -168 3 -315 2 -328 0z"/>
<path d="M3900 5056 c0 -9 -5 -16 -11 -16 -6 0 -8 -9 -4 -20 6 -18 2 -20 -52
-20 -57 0 -57 -1 -37 -18 29 -23 37 -72 16 -88 -16 -12 -16 -13 1 -20 10 -3
29 -1 43 6 21 12 26 11 38 -5 21 -29 36 -8 36 51 0 40 4 54 15 54 10 0 15 -15
17 -57 2 -42 7 -58 17 -58 10 0 14 15 15 55 l1 55 48 3 c28 2 47 -1 47 -7 0
-6 -13 -11 -30 -11 -38 0 -39 -21 -4 -67 18 -24 33 -33 55 -33 16 0 29 -4 29
-10 0 -15 30 -12 31 3 0 6 1 37 2 67 2 43 6 55 19 58 14 3 17 -6 20 -55 2 -42
7 -58 17 -58 10 0 14 15 15 55 1 43 5 55 18 58 14 3 17 -6 20 -55 2 -42 7 -58
17 -58 10 0 14 15 15 55 1 52 2 55 29 58 22 3 27 -1 27 -17 0 -12 -7 -21 -15
-21 -20 0 -19 -13 4 -34 22 -20 37 -7 43 39 2 19 9 31 21 33 15 3 17 -5 17
-58 0 -52 3 -61 17 -58 12 2 16 15 17 58 l1 55 49 3 c27 2 54 -2 59 -7 8 -8
-1 -11 -30 -11 -29 0 -43 -5 -47 -16 -9 -22 21 -54 50 -54 13 0 27 -7 32 -16
12 -22 32 -9 32 21 0 12 6 25 14 28 11 4 14 -1 13 -20 -2 -32 18 -41 33 -14
15 29 -3 61 -35 61 -16 0 -25 6 -25 15 0 11 11 15 40 15 l40 0 0 -60 c0 -47 3
-60 15 -60 11 0 15 13 15 55 0 41 4 56 17 64 16 8 15 11 -7 30 -45 38 -80 52
-123 49 -37 -3 -42 -6 -45 -30 -3 -26 -7 -28 -48 -28 -31 0 -54 7 -75 22 -21
16 -48 23 -94 26 -62 4 -65 3 -75 -22 -13 -34 -34 -33 -60 4 -17 24 -29 30
-57 30 -44 0 -40 -24 5 -28 20 -2 32 -9 32 -18 0 -11 -20 -14 -103 -14 l-103
0 -15 33 c-11 25 -21 33 -46 35 -25 2 -33 -1 -33 -12z"/>
<path d="M2408 5050 c-10 -6 -18 -18 -18 -25 0 -11 -13 -15 -50 -15 -48 0 -67
-14 -35 -26 21 -8 20 -46 -2 -42 -9 2 -17 11 -19 21 -4 29 -25 47 -54 47 -14
0 -30 -3 -33 -7 -12 -11 13 -31 33 -26 11 3 20 0 20 -6 0 -6 -9 -11 -21 -11
-27 0 -19 -24 10 -28 12 -2 20 -9 18 -15 -7 -21 -27 -18 -52 7 -29 29 -35 31
-35 13 0 -45 101 -81 122 -44 12 23 28 21 28 -3 0 -18 9 -24 27 -17 5 1 6 26
5 55 -4 47 -2 52 17 52 19 0 21 -6 21 -55 0 -30 5 -55 10 -55 6 0 13 0 18 0 4
0 5 22 4 49 -4 55 10 72 37 47 10 -9 26 -16 37 -16 18 -1 18 -1 2 -11 -23 -13
-23 -26 2 -39 14 -7 25 -7 38 1 22 14 57 5 46 -12 -7 -12 15 -31 28 -23 4 3 8
30 8 60 0 51 1 54 25 54 14 0 25 -4 25 -10 0 -5 -7 -10 -15 -10 -8 0 -15 -6
-15 -14 0 -17 47 -56 67 -56 8 0 21 -7 30 -15 23 -24 33 -9 33 51 0 40 4 54
15 54 10 0 15 -15 17 -57 2 -43 7 -58 18 -58 11 0 15 13 15 55 0 44 3 55 18
58 14 3 17 -5 17 -52 0 -31 5 -56 10 -56 6 0 13 0 18 0 4 0 5 25 4 55 l-4 55
71 0 c45 0 71 -4 71 -11 0 -6 -7 -8 -17 -5 -22 9 -103 -15 -103 -30 0 -8 13
-10 43 -6 37 5 40 3 29 -10 -10 -13 -10 -17 3 -22 8 -3 21 -3 29 0 8 3 16 -3
19 -16 11 -41 30 -16 31 41 l1 54 53 3 c31 2 52 -1 52 -7 0 -6 -15 -11 -34
-11 -44 0 -57 -27 -26 -52 12 -10 30 -18 41 -18 10 0 22 -8 28 -17 12 -22 28
-9 33 26 1 14 9 26 16 29 9 3 11 -3 6 -22 -5 -22 -3 -26 14 -26 11 0 23 7 26
16 9 24 -12 54 -39 54 -16 0 -25 6 -25 15 0 11 11 15 40 15 l39 0 3 -57 c2
-43 7 -58 18 -58 11 0 13 12 11 52 -2 40 1 53 15 61 15 8 13 13 -17 41 -40 36
-61 44 -115 39 -31 -2 -39 -7 -44 -28 -5 -22 -12 -25 -50 -26 -29 -1 -53 5
-68 17 -53 41 -182 45 -182 5 0 -23 -26 -26 -148 -19 -88 5 -124 11 -149 26
-38 22 -140 33 -165 17z"/>
<path d="M3635 5031 c-3 -6 -3 -15 0 -21 4 -6 -34 -10 -106 -10 -88 0 -110 -3
-101 -12 7 -7 12 -22 12 -34 0 -23 45 -68 81 -79 12 -4 18 -12 15 -21 -7 -19
22 -30 37 -15 8 8 6 18 -9 38 -14 20 -18 38 -14 63 5 35 5 35 63 38 35 2 57
-1 57 -8 0 -5 -18 -10 -39 -10 -31 0 -41 -4 -46 -21 -9 -27 20 -59 55 -59 14
0 31 -5 37 -11 20 -20 33 1 33 57 0 30 5 54 10 54 6 0 10 5 10 10 0 6 -14 10
-30 10 -24 0 -30 4 -28 17 3 19 -26 30 -37 14z"/>
<path d="M4895 5031 c-3 -6 -3 -15 0 -21 4 -6 -12 -10 -40 -10 -28 0 -44 -4
-40 -10 3 -5 15 -10 26 -10 22 0 26 -28 4 -36 -8 -4 -15 -12 -15 -19 0 -14 65
-75 80 -75 21 0 19 20 -5 36 -30 20 -27 27 8 19 14 -4 27 -15 30 -26 3 -10 12
-19 21 -19 13 0 16 12 16 60 0 57 1 60 25 60 28 0 35 -27 10 -36 -23 -9 -18
-27 19 -63 25 -24 40 -32 53 -27 17 7 17 8 -1 21 -10 8 -24 16 -30 18 -6 2 -9
7 -6 10 10 11 145 -16 153 -30 4 -7 15 -13 22 -13 12 0 15 14 15 60 0 47 3 60
15 60 12 0 15 -13 15 -60 0 -51 3 -60 18 -60 15 0 17 9 17 58 l0 57 58 3 c46
2 57 0 57 -13 0 -11 -10 -15 -39 -15 -43 0 -55 -9 -45 -34 7 -17 44 -22 44 -6
0 6 9 10 20 10 16 0 20 -7 20 -31 0 -23 4 -30 17 -27 14 2 17 13 14 55 -2 41
1 53 16 61 10 6 15 13 12 16 -3 4 -128 7 -278 7 -245 1 -271 2 -269 17 3 18
-27 29 -37 13z"/>
<path d="M3321 4769 c-35 -14 -319 -89 -337 -89 -8 0 -38 16 -67 35 -28 19
-61 35 -72 35 -29 1 -775 -242 -775 -252 0 -23 95 2 412 107 332 111 349 115
376 101 33 -17 56 -42 45 -49 -4 -2 -64 -19 -133 -37 -69 -17 -163 -43 -210
-57 -47 -13 -112 -27 -145 -31 -66 -8 -77 -25 -18 -30 58 -4 84 -12 78 -22 -3
-6 -22 -10 -41 -10 -19 0 -34 -4 -34 -10 0 -5 -9 -10 -20 -10 -10 0 -29 -4
-42 -9 -56 -21 -106 -35 -143 -40 -32 -5 -41 -11 -43 -28 -3 -20 1 -23 32 -23
19 0 38 5 41 10 3 6 39 10 79 10 39 0 77 5 82 10 6 6 39 12 73 13 36 1 67 7
73 14 6 7 20 13 32 13 31 0 66 11 66 21 0 5 -15 12 -32 17 -29 7 -22 9 48 15
82 6 138 23 128 38 -3 5 -67 9 -142 9 -75 0 -132 4 -127 8 6 5 156 46 335 90
179 45 369 93 424 108 l98 26 104 -51 c57 -27 104 -55 104 -61 0 -6 -33 -10
-85 -10 -86 0 -148 -16 -123 -32 7 -4 32 -8 56 -8 61 0 133 -20 140 -39 8 -22
23 -31 54 -31 30 0 83 -18 76 -25 -11 -11 -120 -34 -192 -41 -60 -5 -79 -11
-87 -25 -9 -17 -23 -19 -134 -19 -77 0 -126 -4 -130 -11 -9 -14 -2 -20 36 -28
18 -4 34 -11 36 -17 4 -13 -161 -36 -248 -35 -33 1 -69 -6 -85 -14 -18 -9 -58
-15 -104 -15 -88 -1 -140 -11 -178 -36 -27 -19 -27 -19 -4 -22 13 -2 33 3 45
11 25 16 139 28 287 31 53 1 109 7 127 15 34 14 193 11 241 -4 16 -6 22 -3 22
9 0 13 13 16 73 17 39 1 76 1 81 0 4 -1 18 2 30 6 17 5 13 8 -23 15 -49 8 -56
12 -46 27 3 6 38 11 78 11 78 0 156 27 136 47 -7 7 -1 13 18 18 28 7 167 32
236 42 51 7 56 21 10 28 -21 3 -58 12 -83 21 -25 8 -60 19 -78 24 -18 4 -38
13 -45 18 -7 6 -29 13 -49 17 -41 8 -51 29 -17 38 36 9 12 27 -126 93 -135 65
-152 70 -194 53z"/>
<path d="M4085 4685 c-77 -41 -141 -81 -143 -90 -3 -12 8 -15 62 -15 37 0 66
-4 66 -10 0 -5 -4 -10 -10 -10 -5 0 -10 -4 -10 -10 0 -5 37 -10 83 -12 l82 -3
-67 -32 c-38 -18 -68 -36 -68 -42 0 -5 18 -12 40 -16 46 -8 62 -24 31 -32 -38
-10 -22 -20 41 -27 l62 -7 -29 -23 -29 -23 78 -12 c42 -6 93 -11 112 -11 21 0
47 -9 61 -20 28 -22 58 -26 68 -9 9 13 195 1 214 -15 10 -8 137 -12 408 -14
337 -3 393 -2 393 11 0 12 -46 15 -287 19 -187 4 -299 10 -318 18 -16 6 -68
13 -115 15 -47 2 -168 8 -270 13 -102 6 -200 11 -218 11 -45 1 -33 16 25 30
138 35 138 36 8 41 -127 5 -143 14 -72 40 22 8 42 21 45 29 4 11 -7 13 -57 8
-33 -3 -61 -3 -61 0 0 2 21 13 47 25 66 29 536 208 547 208 17 0 546 -223 546
-230 0 -5 -54 -6 -120 -3 -84 4 -120 3 -120 -5 0 -6 19 -16 43 -23 23 -6 102
-28 176 -49 108 -31 137 -36 152 -27 27 17 18 31 -27 41 -91 19 -112 43 -44
48 22 2 41 7 41 12 0 7 -438 197 -608 264 -51 19 -68 15 -219 -48 l-101 -43
-119 52 c-65 28 -132 51 -149 50 -17 0 -90 -32 -170 -74z m267 3 c53 -24 98
-47 100 -53 5 -15 -124 -73 -168 -75 -75 -4 -124 0 -124 9 0 6 21 11 47 13 25
2 48 8 50 13 2 6 -38 11 -104 12 -59 2 -111 7 -116 12 -9 9 182 110 208 111 6
0 54 -19 107 -42z"/>
<path d="M2543 4340 c-11 -5 -102 -12 -201 -16 -99 -4 -186 -10 -193 -14 -6
-5 -9 -15 -6 -24 5 -14 28 -16 151 -16 107 0 155 4 181 15 19 8 51 22 70 30
50 21 49 45 -2 25z"/>
<path d="M4138 4283 c34 -7 28 -33 -9 -33 -17 0 -28 -4 -24 -10 3 -5 20 -10
36 -10 17 0 28 -4 25 -8 -2 -4 0 -14 5 -22 8 -13 10 -13 18 0 5 8 7 18 4 23
-3 4 -2 19 1 33 6 22 11 24 66 24 33 0 60 -4 60 -10 0 -5 -15 -10 -34 -10 -19
0 -41 -3 -50 -6 -26 -10 -18 -24 14 -24 17 0 30 -4 30 -10 0 -5 11 -12 24 -16
14 -3 27 -13 30 -21 5 -13 -9 -14 -111 -8 -99 6 -121 10 -135 26 -14 17 -31
19 -155 19 -93 0 -133 -3 -123 -10 8 -5 49 -10 90 -11 l75 -2 -95 -9 c-52 -5
-460 -8 -905 -7 -729 1 -812 -1 -824 -15 -7 -9 -11 -23 -7 -31 5 -13 197 -15
1700 -15 975 0 1697 4 1700 9 3 5 -1 14 -10 21 -12 10 -12 15 -2 21 7 4 10 10
8 12 -3 3 -200 7 -438 11 -379 5 -433 4 -438 -9 -5 -12 -31 -15 -144 -15 -152
0 -170 3 -170 31 0 14 -7 19 -25 19 -14 0 -25 5 -25 10 0 6 11 16 25 22 14 6
25 15 25 20 0 4 9 8 20 8 17 0 20 -7 20 -40 0 -22 5 -40 10 -40 6 0 10 13 10
29 0 16 3 36 6 45 5 14 -11 16 -147 15 -85 -1 -144 -4 -131 -6z"/>
<path d="M2738 4241 c-58 -6 -77 -15 -64 -28 4 -5 114 -9 244 -11 161 -1 232
1 222 8 -8 5 -34 10 -57 10 -24 0 -43 5 -45 12 -5 15 -203 21 -300 9z"/>
<path d="M3575 4063 c-18 -5 -223 -58 -317 -84 -46 -12 -50 -29 -8 -29 36 0
54 -34 44 -85 -5 -28 -2 -34 15 -40 23 -7 56 8 65 30 3 8 16 15 30 15 19 0 27
-8 36 -35 12 -36 24 -42 49 -26 12 8 11 20 -8 83 -32 103 -32 110 6 121 18 5
38 7 46 4 8 -3 22 -38 32 -79 23 -95 30 -107 55 -101 25 7 25 19 0 113 -24 92
-24 87 0 95 11 3 20 11 20 16 0 9 -30 10 -65 2z"/>
<path d="M4340 4063 c0 -5 7 -17 15 -27 17 -23 20 -66 5 -66 -6 0 -66 16 -133
36 -154 45 -419 72 -386 40 2 -3 60 -10 129 -16 138 -13 193 -30 188 -57 -4
-23 -60 -30 -79 -10 -16 16 -136 30 -144 17 -3 -5 4 -14 15 -20 15 -8 20 -19
18 -38 -5 -44 -34 -39 -70 12 -34 49 -36 50 -56 37 -12 -7 -11 -14 2 -39 23
-44 63 -72 103 -72 53 0 73 15 73 55 0 28 4 35 19 35 20 0 31 -18 31 -51 0
-35 44 -69 90 -69 34 0 41 -3 38 -17 -4 -25 10 -43 31 -43 14 0 24 20 45 90
17 57 32 90 41 90 25 0 24 -14 -11 -100 -31 -77 -33 -86 -18 -97 26 -19 37 -7
72 82 34 87 44 95 83 75 19 -10 18 -14 -23 -90 -35 -64 -41 -83 -32 -97 20
-32 35 -20 78 61 24 44 48 82 55 84 10 3 161 -59 180 -74 2 -2 -2 -10 -8 -18
-11 -13 -18 -13 -53 0 -61 21 -93 18 -117 -12 -25 -32 -26 -46 -5 -90 22 -45
39 -38 39 15 0 62 45 90 91 57 19 -14 18 -16 -9 -71 -15 -32 -27 -58 -25 -60
2 -1 13 -8 25 -14 21 -11 25 -7 62 67 52 103 59 109 100 74 l33 -27 -26 -24
c-15 -14 -38 -24 -58 -25 -40 -1 -48 -26 -19 -55 30 -30 46 -26 95 19 47 44
58 47 75 26 10 -11 -2 -28 -61 -84 -72 -70 -72 -71 -54 -91 l19 -21 68 65 c37
36 74 65 81 65 17 0 48 -31 48 -47 0 -18 -47 -43 -80 -43 -53 0 -53 -58 0 -70
13 -3 28 -13 34 -23 9 -15 5 -23 -24 -46 -29 -25 -32 -31 -21 -45 21 -25 23
-24 153 62 20 13 41 21 46 18 19 -11 55 -117 44 -128 -16 -16 -51 1 -58 28 -8
33 -37 31 -68 -7 -31 -36 -32 -55 -9 -105 17 -34 17 -36 -1 -49 -12 -9 -16
-20 -11 -34 3 -12 9 -21 13 -21 4 0 48 13 97 29 l90 30 23 -21 c16 -16 22 -18
22 -7 -1 28 -90 263 -114 298 -13 20 -47 68 -74 107 -71 101 -75 110 -61 135
9 17 17 20 45 16 39 -6 43 2 14 28 -37 34 -100 13 -100 -33 0 -20 -11 -14 -88
52 -38 33 -91 72 -118 86 -31 17 -47 32 -45 41 18 63 19 61 -90 108 l-102 45
-18 -22 c-9 -12 -19 -28 -22 -35 -8 -22 -41 8 -58 53 -9 24 -26 52 -39 62 -23
19 -40 23 -40 11z"/>
<path d="M2928 3909 c-26 -15 -22 -29 10 -29 37 0 73 -11 70 -21 -2 -4 -74
-62 -161 -128 -151 -114 -211 -171 -309 -291 -79 -97 -178 -270 -154 -270 8 0
28 24 45 54 36 62 52 78 69 67 10 -6 8 -18 -7 -52 -26 -56 -26 -74 -1 -99 34
-34 140 -24 140 12 0 18 -4 19 -36 14 -25 -5 -43 -2 -60 9 -28 18 -31 41 -9
73 l16 22 61 -31 c58 -30 62 -30 75 -13 7 10 13 20 13 23 0 3 -39 26 -86 51
-47 25 -88 48 -91 53 -2 4 10 25 27 48 l32 40 31 -24 c18 -13 34 -35 37 -48
12 -49 83 -23 78 29 -5 39 23 49 61 23 26 -18 35 -20 46 -11 25 21 17 34 -60
93 -41 32 -75 62 -75 66 0 18 111 92 133 89 35 -5 34 -42 -2 -69 -35 -26 -39
-39 -12 -39 10 0 29 -8 42 -19 43 -33 62 -33 113 0 34 21 45 34 38 41 -7 7
-18 5 -36 -7 -30 -20 -70 -14 -80 11 -7 19 58 83 85 84 8 0 25 -14 38 -31 15
-20 29 -29 44 -27 37 5 29 31 -33 101 -33 38 -60 72 -60 76 0 5 12 17 27 26
l27 18 66 -72 c36 -39 70 -71 76 -71 6 0 17 7 24 15 10 11 1 27 -49 85 -62 72
-69 84 -51 95 21 13 8 21 -55 33 -76 14 -75 14 -97 1z"/>
<path d="M3828 3787 c-16 -13 -28 -28 -28 -34 0 -21 -19 -24 -44 -8 -31 21
-63 12 -78 -21 -8 -17 -17 -23 -27 -18 -44 19 -63 15 -115 -21 -62 -43 -76
-67 -76 -135 0 -28 -4 -50 -9 -50 -5 0 -25 7 -44 15 -70 29 -68 34 -65 -157
l3 -173 570 0 570 0 0 110 0 110 -144 58 c-79 32 -146 56 -149 53 -3 -3 1 -12
7 -20 7 -8 11 -27 9 -43 -3 -25 -7 -28 -38 -27 -19 1 -83 22 -141 48 -59 25
-110 46 -113 46 -3 0 -6 -20 -6 -45 0 -33 -4 -45 -14 -45 -8 0 -72 25 -142 55
-70 30 -129 55 -131 55 -2 0 -3 -20 -3 -45 0 -49 -18 -67 -45 -45 -11 9 -15
34 -15 94 0 49 -5 87 -12 94 -19 19 17 26 54 11 29 -12 32 -11 52 13 17 21 27
25 54 21 25 -4 42 0 62 16 35 25 43 26 60 6 18 -21 50 -19 76 6 22 20 22 24 8
50 -12 23 -43 50 -56 49 -2 -1 -15 -11 -30 -23z m-294 -244 c3 -42 6 -136 6
-210 l0 -133 -45 0 -45 0 0 93 c0 51 4 97 10 103 5 5 10 48 11 94 1 112 6 130
34 130 20 0 23 -6 29 -77z m914 -155 c3 -17 -16 -18 -301 -18 -249 0 -307 3
-316 14 -9 11 -9 15 1 19 7 3 148 5 313 4 277 -2 300 -3 303 -19z m-718 -28
c0 -6 10 -8 23 -5 15 4 28 1 36 -9 16 -19 6 -36 -21 -36 -18 0 -17 -3 11 -36
36 -40 36 -61 0 -56 -13 2 -52 3 -86 2 -69 -1 -86 15 -27 26 40 7 49 22 40 59
-5 21 -10 24 -26 15 -40 -21 -54 -3 -23 32 17 19 73 25 73 8z"/>
<path d="M3584 3088 c-34 -16 -44 -52 -44 -157 l0 -97 -37 0 c-21 1 -44 5 -50
9 -9 5 -32 -10 -68 -44 -58 -55 -92 -67 -192 -68 -33 -1 -46 -7 -62 -27 -28
-35 -29 -69 -2 -36 22 26 43 29 34 6 -4 -12 -2 -15 8 -12 8 2 15 15 17 27 5
34 36 23 37 -14 l0 -30 73 -3 c125 -5 81 -22 -58 -22 -76 0 -130 -4 -130 -10
0 -5 16 -22 35 -37 31 -25 44 -28 132 -33 l98 -5 -3 -42 c-2 -38 1 -44 26 -57
16 -8 34 -22 41 -30 12 -14 67 -16 458 -16 292 0 451 4 464 11 16 8 18 17 13
43 -3 20 -1 36 5 40 14 9 14 53 1 61 -5 3 -10 33 -10 66 l0 59 -102 -2 c-81
-1 -88 -3 -33 -5 122 -5 115 2 115 -113 l0 -100 -50 0 c-38 0 -50 4 -50 15 0
10 10 15 30 15 17 0 30 5 30 10 0 6 -25 10 -55 10 -59 0 -65 -5 -37 -26 16
-12 16 -13 0 -14 -9 0 -20 5 -23 10 -3 6 -14 10 -23 10 -12 0 -13 -3 -4 -12 7
-7 12 -14 12 -17 0 -7 -139 4 -188 14 -23 5 -38 3 -50 -8 -19 -17 -36 -16
-275 5 -117 11 -141 16 -153 32 -23 32 0 44 36 18 34 -26 53 -28 70 -7 8 9 17
12 24 6 17 -13 146 -23 146 -11 0 16 21 12 35 -7 8 -11 18 -14 31 -8 17 7 18
8 2 12 -10 3 -18 9 -18 15 0 7 21 9 64 5 73 -7 90 3 84 50 l-3 28 -273 3
c-237 2 -273 0 -278 -13 -7 -17 14 -75 27 -75 4 0 9 -12 11 -27 2 -23 8 -29
36 -31 42 -4 31 -22 -13 -22 -49 0 -65 9 -65 37 0 18 -4 24 -15 19 -13 -4 -15
9 -15 84 l0 90 370 0 c302 0 368 2 364 13 -3 8 6 18 20 25 16 7 29 24 35 49
13 47 14 224 1 278 -17 75 -18 75 -319 74 -161 0 -274 -4 -287 -11z m439 -58
c88 0 107 -3 107 -15 0 -8 5 -15 10 -15 7 0 10 -42 8 -117 l-3 -118 -240 -3
c-276 -3 -265 -6 -265 87 -1 33 -7 64 -15 75 -22 29 -20 103 3 110 9 2 78 3
152 1 74 -3 183 -4 243 -5z m-423 -176 l0 -95 36 -15 c24 -10 62 -14 113 -13
44 2 85 -2 98 -9 13 -7 66 -12 132 -12 64 0 111 -4 111 -10 0 -17 -65 -22
-191 -15 -68 4 -144 8 -169 9 -65 3 -143 17 -157 28 -9 7 -13 44 -13 119 0
102 1 109 20 109 19 0 20 -7 20 -96z"/>
<path d="M3807 3003 c-18 -5 -18 -6 -1 -24 22 -25 3 -52 -31 -43 -18 4 -25 1
-30 -16 -9 -28 11 -53 35 -40 17 9 40 -4 40 -23 0 -21 33 -77 46 -77 7 0 26
17 41 37 35 47 95 102 109 103 6 0 17 -7 24 -15 18 -22 30 -18 30 8 0 13 5 28
12 35 9 9 7 12 -8 12 -12 0 -24 -3 -28 -7 -11 -12 -128 -13 -149 -2 -14 8 -17
17 -13 35 6 22 3 24 -26 23 -18 -1 -41 -3 -51 -6z"/>
<path d="M4077 2633 c-11 -3 -16 -11 -12 -22 2 -9 1 -31 -4 -49 l-10 -32 128
0 128 0 7 42 c10 60 -5 68 -123 67 -53 -1 -104 -3 -114 -6z"/>
<path d="M3580 2250 c0 -11 -7 -23 -16 -27 -15 -5 -15 -7 0 -15 12 -7 16 -24
16 -63 0 -41 4 -55 15 -55 10 0 15 15 17 58 l3 57 53 3 c56 3 74 -15 20 -20
-29 -3 -33 -6 -33 -33 0 -26 5 -31 38 -39 20 -5 37 -13 37 -18 0 -4 7 -8 15
-8 11 0 15 12 15 48 0 58 10 75 41 70 21 -3 23 -7 21 -53 -1 -27 2 -56 7 -64
17 -26 31 0 31 60 l0 59 74 0 c71 0 108 -14 69 -26 -10 -3 -30 -12 -45 -20
-14 -8 -33 -14 -42 -14 -26 0 -18 -36 12 -56 18 -13 45 -19 84 -19 l58 0 0 33
c0 24 -4 32 -18 32 -10 0 -23 -5 -30 -12 -9 -9 -13 -7 -18 5 -8 21 3 37 25 37
9 0 27 11 39 24 l21 25 -52 3 c-45 3 -52 6 -55 26 -3 20 -8 22 -77 22 -69 0
-73 -1 -79 -25 -5 -21 -12 -25 -45 -25 -33 0 -40 4 -45 25 -6 24 -10 25 -81
25 -69 0 -75 -2 -75 -20z"/>
<path d="M4060 1951 c0 -5 7 -14 15 -21 8 -7 15 -16 15 -21 0 -5 -99 -9 -219
-9 l-219 0 -6 25 c-6 24 -10 25 -80 25 -70 0 -75 -1 -78 -22 -3 -22 -8 -23
-89 -26 l-86 -3 7 -38 c9 -52 17 -61 51 -61 23 0 29 -4 29 -21 0 -14 5 -19 18
-17 13 2 18 16 22 63 4 47 9 61 23 63 14 3 17 -4 17 -46 0 -59 7 -82 26 -82 9
0 14 18 16 62 3 70 10 75 75 63 42 -8 43 -38 0 -43 -15 -2 -27 -7 -27 -12 0
-24 26 -61 46 -66 32 -8 56 3 27 11 -28 9 -30 41 -4 55 11 5 21 20 23 32 5 35
31 28 39 -9 3 -18 12 -39 18 -47 9 -11 8 -15 -5 -20 -13 -5 -14 -10 -6 -18 9
-9 16 -7 30 5 23 21 42 22 42 2 0 -8 7 -15 15 -15 11 0 15 13 15 53 0 53 12
77 37 77 8 0 18 -11 23 -25 5 -14 16 -25 25 -25 8 0 15 -4 15 -10 0 -5 -11
-10 -25 -10 -14 0 -25 -4 -25 -8 0 -15 46 -52 63 -52 20 0 23 16 5 23 -9 3 -6
12 10 29 12 13 22 37 22 52 0 28 0 28 55 24 30 -3 58 -8 62 -12 12 -11 -19
-26 -54 -26 -23 0 -33 -5 -33 -15 0 -9 9 -15 25 -15 14 0 25 5 25 11 0 6 8 9
18 7 11 -2 19 -15 22 -38 3 -22 11 -36 22 -38 14 -3 17 7 20 59 3 58 5 64 28
69 l25 6 -27 7 c-15 4 -35 18 -44 32 -16 24 -44 34 -44 16z"/>
<path d="M2271 6464 c-11 -14 -22 -30 -25 -37 -3 -9 -7 -8 -15 3 -8 12 -13 11
-31 -5 -12 -11 -26 -28 -32 -38 -8 -16 -7 -18 9 -13 16 5 28 -9 66 -73 50 -84
54 -97 35 -104 -7 -2 -10 -7 -7 -11 8 -8 109 45 109 57 0 5 -8 6 -19 2 -21 -6
-28 1 -70 78 -34 61 -34 82 -1 112 19 17 21 17 41 -1 11 -10 36 -47 56 -82 29
-51 33 -65 23 -78 -23 -26 -6 -23 50 9 49 28 52 32 30 35 -19 2 -35 20 -68 78
-24 41 -52 79 -62 84 -33 17 -68 11 -89 -16z"/>
<path d="M1990 6439 c-75 -54 -77 -57 -39 -56 32 2 37 -4 116 -118 45 -66 83
-124 83 -129 0 -5 -7 -18 -17 -28 -28 -31 4 -21 68 22 32 23 59 43 59 46 0 3
-13 3 -28 -1 -27 -5 -32 1 -110 115 -78 114 -94 151 -72 165 12 7 14 25 3 24
-5 0 -33 -19 -63 -40z"/>
<path d="M5473 6420 c-27 -11 -63 -66 -63 -96 0 -12 -11 -29 -24 -38 -14 -8
-27 -24 -31 -35 -3 -10 -17 -22 -31 -25 -13 -4 -30 -18 -36 -32 -25 -55 53
-133 140 -142 41 -4 52 0 80 23 56 47 41 88 -57 155 -20 14 -29 26 -22 28 7 2
20 -3 30 -12 42 -38 105 -29 144 21 10 13 26 22 34 21 8 -2 20 5 27 14 9 15 6
21 -13 34 -13 10 -33 28 -45 42 -40 46 -86 61 -133 42z"/>
<path d="M5680 6260 c0 -5 5 -10 10 -10 21 0 8 -29 -41 -94 -39 -51 -56 -67
-70 -63 -39 10 -26 -11 34 -56 34 -25 81 -63 105 -83 43 -37 43 -37 37 -11 -6
23 1 36 45 87 29 33 60 60 69 60 22 0 61 -28 61 -43 0 -7 -23 -41 -52 -75 -42
-52 -56 -63 -75 -59 -38 7 -35 -7 12 -46 50 -42 59 -45 50 -18 -4 15 10 39 54
92 38 44 61 81 61 96 0 35 -42 73 -81 73 -27 0 -30 2 -19 15 16 19 7 28 -39
44 -31 10 -63 4 -33 -6 22 -8 13 -29 -44 -94 -39 -45 -62 -63 -76 -61 -19 2
-47 28 -48 43 0 3 29 45 65 92 36 48 65 91 65 96 0 6 -17 15 -37 20 -47 13
-53 13 -53 1z"/>
<path d="M1638 6105 c-4 -4 -2 -19 3 -33 6 -15 8 -42 4 -60 -6 -31 -4 -33 15
-27 17 5 34 -7 88 -64 37 -39 75 -71 85 -71 39 0 77 76 47 95 -5 3 -10 -3 -10
-13 0 -43 -31 -33 -91 31 -61 65 -69 81 -44 91 16 6 21 36 6 36 -5 0 -14 -7
-21 -15 -18 -21 -31 -19 -55 11 -11 14 -23 22 -27 19z"/>
<path d="M6005 5938 c-48 -28 -85 -80 -85 -120 0 -36 24 -84 49 -98 28 -14 81
-12 111 5 25 14 24 14 -17 15 -54 0 -83 26 -83 74 0 19 9 44 19 57 l20 24 60
-59 c50 -49 62 -57 75 -47 38 32 23 113 -27 146 -41 26 -79 27 -122 3z"/>
<path d="M1540 5910 c-11 -11 -20 -33 -20 -50 0 -32 -9 -37 -28 -18 -9 9 -15
3 -27 -25 -20 -47 -20 -63 0 -47 12 10 25 2 72 -42 32 -29 63 -60 69 -68 15
-18 7 -33 -12 -26 -8 3 -14 -1 -14 -9 0 -25 -18 -17 -87 35 -37 28 -77 50 -90
50 -30 0 -79 -47 -89 -84 -8 -33 10 -76 31 -76 24 0 28 26 9 55 -17 25 -16 27
4 48 19 19 24 19 47 7 22 -12 25 -18 18 -44 -4 -17 -8 -56 -8 -86 0 -49 3 -56
28 -70 24 -13 30 -13 55 0 18 10 30 28 36 53 6 24 15 37 26 37 21 0 40 20 40
42 0 10 4 18 9 18 5 0 28 23 51 51 40 47 41 50 17 44 -21 -6 -36 2 -82 41 -46
40 -55 53 -55 81 0 22 6 36 21 43 24 13 39 5 112 -63 43 -40 47 -48 37 -66
-17 -32 2 -25 43 17 41 42 48 63 16 55 -14 -4 -31 5 -57 29 -99 93 -134 106
-172 68z"/>
<path d="M6162 5735 c-47 -29 -72 -69 -72 -114 0 -57 23 -86 82 -104 22 -8 90
12 83 23 -3 5 -12 7 -20 3 -31 -11 -66 7 -81 43 -14 32 -13 39 3 72 10 20 23
37 29 39 6 2 32 -24 58 -57 50 -64 69 -72 86 -39 19 34 20 60 6 88 -37 70
-105 88 -174 46z"/>
<path d="M6370 5575 c16 -19 13 -23 -69 -79 -59 -40 -74 -46 -86 -36 -29 24
-26 1 7 -49 36 -55 49 -63 45 -29 -1 15 12 32 48 60 72 55 125 64 125 20 0
-10 11 -24 25 -30 43 -20 30 -44 -46 -90 -76 -45 -88 -49 -108 -29 -20 18 -9
-11 25 -65 27 -41 28 -42 34 -18 4 17 32 40 97 80 51 30 92 58 93 63 0 4 -18
20 -39 35 -33 23 -38 31 -34 55 5 24 1 29 -26 40 -22 8 -29 16 -26 28 4 11 -4
24 -24 38 -35 25 -60 29 -41 6z"/>
<path d="M1108 5523 c-40 -42 -112 -152 -105 -160 3 -2 14 1 26 9 24 14 23 15
184 -89 90 -58 98 -66 93 -88 -10 -41 7 -28 47 36 40 65 48 92 19 66 -10 -10
-25 -17 -32 -17 -13 0 -110 58 -110 67 0 2 11 21 25 41 35 52 34 105 -4 143
-44 44 -96 41 -143 -8z"/>
<path d="M6565 5278 c5 -20 -4 -28 -66 -61 -54 -29 -79 -38 -100 -33 l-29 6
25 -50 c29 -56 48 -74 43 -39 -3 21 7 29 70 62 70 37 74 38 98 22 54 -35 42
-61 -48 -106 -62 -32 -87 -36 -106 -17 -18 18 -14 4 15 -57 27 -54 46 -73 36
-36 -4 15 12 28 81 67 90 50 105 69 92 119 -4 14 -20 32 -38 41 -28 14 -29 17
-14 26 16 9 15 13 -15 44 -38 40 -52 43 -44 12z"/>
<path d="M6663 4990 c-12 -5 -31 -22 -44 -39 -19 -26 -25 -28 -45 -19 -18 8
-27 8 -40 -3 -10 -8 -38 -14 -63 -14 l-46 0 -3 -40 c-8 -94 52 -175 129 -175
33 0 41 4 51 26 10 22 9 37 -10 89 -26 75 -27 85 -8 85 8 0 24 -20 35 -43 30
-62 83 -83 129 -51 20 14 23 14 28 0 3 -9 13 -16 21 -16 12 0 13 6 8 28 -4 15
-11 45 -15 67 -9 58 -27 85 -65 101 -19 8 -36 14 -37 13 -2 0 -13 -4 -25 -9z"/>
<path d="M943 4949 c-31 -11 -46 -45 -38 -85 3 -19 4 -34 1 -34 -3 0 -35 11
-72 25 -36 14 -70 25 -75 25 -5 0 -9 -20 -9 -45 0 -25 5 -45 10 -45 6 0 10 5
10 10 0 18 31 11 154 -36 148 -56 159 -62 152 -79 -2 -7 -2 -16 2 -19 6 -6 52
98 52 117 0 6 -9 2 -20 -8 -19 -17 -22 -17 -95 10 -79 29 -95 47 -80 95 6 19
13 22 44 17 20 -2 62 -16 94 -30 45 -20 57 -31 57 -48 0 -30 11 -17 32 39 23
59 22 65 -1 50 -15 -9 -29 -8 -67 7 -88 33 -128 43 -151 34z"/>
<path d="M863 4685 c-48 -21 -69 -58 -55 -101 12 -40 11 -40 -68 -19 -78 21
-80 20 -80 -23 0 -46 9 -58 25 -35 11 15 25 13 161 -25 l148 -41 23 21 c32 30
47 90 33 132 -14 42 -57 84 -101 96 -43 13 -47 12 -86 -5z m107 -61 c53 -22
74 -58 54 -96 -8 -16 -22 -28 -30 -28 -24 0 -127 31 -141 42 -21 17 -15 55 13
77 32 25 51 26 104 5z"/>
<path d="M6719 4430 c-25 -15 -42 -65 -35 -103 3 -19 19 -51 35 -72 l28 -38
-18 -42 c-25 -56 -12 -97 38 -120 40 -19 57 -12 25 11 -27 19 -29 63 -4 94
l17 21 68 -30 c37 -17 70 -37 73 -46 3 -8 11 -15 16 -15 8 0 2 98 -7 108 -1 1
-16 -5 -33 -13 -28 -15 -34 -15 -62 0 -16 8 -30 19 -30 24 0 10 67 71 78 71 4
0 21 -13 37 -30 53 -55 135 -33 135 38 0 37 -27 78 -60 92 -26 11 -37 10 -75
-5 l-45 -17 -46 41 c-48 42 -97 53 -135 31z"/>
<path d="M967 4389 c5 -17 2 -20 -13 -16 -10 3 -52 11 -92 17 -66 11 -75 10
-93 -6 -30 -27 -44 -87 -29 -124 14 -34 57 -52 70 -29 11 17 4 28 -27 40 -19
7 -24 15 -21 37 3 23 7 27 37 27 33 0 34 -2 48 -55 22 -86 68 -117 117 -79 28
22 32 55 11 102 -5 12 -3 17 8 17 24 0 31 38 13 65 -20 31 -36 32 -29 4z"/>
<path d="M949 4140 l-14 -21 -172 18 c-95 9 -175 14 -179 10 -4 -4 -2 -26 5
-49 13 -41 13 -41 29 -21 17 20 20 20 137 7 66 -7 133 -13 148 -13 20 -1 30
-7 34 -21 10 -37 20 -21 27 41 8 69 5 79 -15 49z"/>
<path d="M935 3984 c-10 -15 -28 -15 -185 -6 -96 5 -178 8 -182 6 -4 -2 0 -25
9 -51 15 -42 17 -45 25 -24 8 23 9 23 151 16 160 -7 177 -10 177 -31 0 -8 4
-14 9 -14 5 0 11 27 13 60 3 63 0 71 -17 44z"/>
<path d="M905 3851 c5 -18 -2 -20 -90 -26 -92 -7 -96 -9 -110 -36 -19 -36 -19
-72 0 -109 23 -45 75 -53 75 -10 0 12 -10 21 -29 25 -16 3 -32 13 -35 21 -10
25 12 54 40 54 19 0 28 -8 41 -37 29 -72 51 -93 92 -93 22 0 44 6 51 15 16 20
16 60 -1 92 -11 21 -11 27 -1 30 18 7 14 58 -6 76 -24 22 -35 21 -27 -2z"/>
<path d="M7053 3710 c21 -17 27 -30 27 -60 0 -21 -3 -41 -7 -43 -9 -4 -258 11
-290 18 -17 4 -23 13 -23 32 0 16 -4 23 -9 18 -13 -14 -24 -155 -13 -155 5 0
12 9 15 20 6 23 21 24 205 13 l113 -6 -3 -46 c-3 -41 -6 -48 -38 -63 l-35 -17
51 -1 52 0 7 128 c4 70 8 138 9 152 1 23 -3 25 -44 28 l-44 3 27 -21z"/>
<path d="M806 3569 c-14 -11 -26 -27 -26 -35 0 -18 -10 -17 -34 1 -25 19 -76
19 -103 0 -39 -27 -47 -74 -32 -201 7 -63 16 -114 21 -114 4 0 8 8 8 19 0 31
19 38 156 55 169 21 174 21 174 -3 0 -11 5 -23 10 -26 13 -8 12 20 -5 143 -8
57 -22 116 -32 132 -30 52 -92 65 -137 29z m112 -72 c23 -24 41 -110 26 -120
-5 -3 -39 -8 -76 -12 l-68 -7 0 60 c0 50 4 65 22 82 29 27 69 25 96 -3z m-178
-25 c16 -13 24 -32 27 -69 l5 -51 -56 -7 c-77 -10 -86 -5 -86 50 0 77 59 118
110 77z"/>
<path d="M6734 3396 c-26 -26 -34 -42 -34 -71 0 -29 8 -45 34 -71 32 -32 56
-43 56 -26 0 4 -9 13 -20 20 -31 19 -28 85 6 111 34 27 98 29 90 4 -3 -10 -8
-40 -11 -68 -4 -27 -9 -58 -12 -67 -7 -29 49 -23 86 8 27 22 31 33 31 73 0 79
-50 121 -146 121 -39 0 -51 -5 -80 -34z"/>
<path d="M6709 3185 c-66 -36 -77 -106 -25 -163 39 -42 59 -38 26 6 -40 54 -2
112 73 112 50 0 95 -24 103 -55 8 -31 -9 -53 -44 -57 -21 -2 -27 -8 -27 -28 0
-37 38 -39 70 -4 29 32 34 88 10 134 -30 58 -128 87 -186 55z"/>
<path d="M1029 2995 c-1 -5 -2 -17 -3 -25 -1 -14 -260 -117 -298 -119 -24 -1
-23 -16 3 -52 23 -33 39 -37 39 -11 0 20 38 42 71 42 11 0 18 -4 14 -10 -11
-18 23 -79 54 -94 65 -34 168 -10 196 45 21 41 19 92 -5 114 -12 11 -18 25
-15 36 4 11 -5 30 -24 51 -17 18 -31 29 -32 23z m35 -111 c57 -56 -72 -160
-150 -122 -61 29 -35 86 53 116 72 25 78 26 97 6z"/>
<path d="M6626 2980 c-37 -101 -42 -135 -13 -96 12 16 18 15 92 -11 l80 -28 0
-40 c0 -51 -15 -54 -104 -25 -76 26 -94 38 -86 57 3 9 0 13 -7 11 -6 -2 -21
-33 -34 -69 -12 -35 -31 -85 -43 -111 -22 -51 -21 -54 7 -37 14 9 32 4 91 -25
72 -37 72 -37 69 -74 -4 -50 -29 -52 -118 -11 -57 26 -70 36 -72 58 -3 23 -7
19 -31 -33 -15 -33 -24 -62 -21 -65 4 -3 9 0 11 7 7 19 33 14 103 -19 111 -53
160 -38 160 47 0 37 2 42 20 37 18 -5 20 0 20 41 0 25 -4 46 -10 46 -5 0 -10
-4 -10 -10 0 -18 -27 -11 -105 26 -72 34 -76 38 -70 63 3 14 10 29 14 34 4 4
40 -4 81 -18 132 -45 179 -29 167 56 -6 46 -2 47 71 19 77 -29 82 -28 82 25 0
25 -4 45 -10 45 -5 0 -10 -7 -10 -15 0 -21 -10 -19 -160 34 -105 37 -138 53
-147 72 -9 17 -13 20 -17 9z"/>
<path d="M1140 2720 c0 -15 -20 -30 -86 -61 -90 -43 -112 -67 -100 -113 4 -15
20 -33 38 -42 31 -16 31 -17 12 -31 -18 -14 -18 -15 14 -44 38 -34 52 -37 45
-9 -5 17 7 26 71 55 83 38 102 42 109 23 2 -7 7 -10 11 -7 4 4 -5 33 -20 65
-24 52 -28 56 -31 33 -3 -22 -16 -32 -72 -58 -79 -36 -92 -38 -115 -12 -31 34
-16 54 68 95 75 36 81 37 93 20 24 -33 23 -7 -2 49 -26 60 -35 69 -35 37z"/>
<path d="M1258 2459 c-2 -15 -32 -37 -101 -77 l-98 -55 23 -25 c13 -13 31 -28
41 -33 15 -9 17 -7 12 13 -5 21 3 29 71 68 64 36 79 42 95 32 30 -19 31 -15 4
37 -29 58 -42 69 -47 40z"/>
<path d="M6388 2417 c-35 -29 -48 -58 -48 -103 0 -30 8 -44 44 -80 37 -38 49
-44 84 -44 58 0 89 15 112 52 54 89 -12 198 -120 198 -32 0 -53 -7 -72 -23z
m142 -61 c33 -22 40 -32 40 -59 0 -42 -15 -57 -57 -57 -99 0 -177 84 -126 135
23 24 93 15 143 -19z"/>
<path d="M1315 2244 c-33 -8 -88 -15 -122 -17 -35 -1 -63 -6 -63 -12 1 -5 12
-23 25 -40 23 -28 25 -29 25 -8 0 15 8 24 23 28 50 12 122 23 126 20 2 -3 -14
-32 -35 -65 -33 -51 -43 -60 -61 -55 -30 7 -29 2 7 -51 32 -45 52 -58 43 -26
-2 11 23 58 66 122 38 58 67 108 65 112 -7 10 -25 9 -99 -8z"/>
<path d="M6242 2189 c-18 -28 -30 -54 -26 -57 4 -4 9 -1 11 6 9 24 36 11 173
-83 76 -52 143 -95 148 -95 6 0 13 8 15 18 15 52 16 72 7 72 -5 0 -10 -4 -10
-10 0 -23 -38 -5 -151 72 -95 65 -119 86 -119 105 0 35 -11 28 -48 -28z"/>
<path d="M1417 2059 c-79 -42 -101 -131 -47 -192 74 -84 215 -36 227 77 6 53
-11 86 -60 116 -40 25 -72 25 -120 -1z m131 -31 c44 -44 -41 -168 -115 -168
-35 0 -53 16 -53 47 0 79 123 166 168 121z"/>
<path d="M6144 2061 c-114 -69 -25 -262 110 -237 77 15 119 115 77 184 -43 67
-125 91 -187 53z m89 -40 c41 -16 87 -69 87 -102 0 -64 -93 -64 -160 0 -41 39
-47 58 -30 92 12 21 61 26 103 10z"/>
<path d="M6005 1915 c-37 -17 -54 -31 -83 -69 -29 -37 -31 -115 -4 -139 29
-27 54 -20 111 28 52 45 81 56 81 33 0 -7 -13 -26 -30 -43 -16 -17 -32 -45
-36 -62 -5 -27 -1 -37 25 -64 24 -24 29 -34 20 -45 -22 -27 2 -36 30 -12 14
13 38 29 54 36 31 13 67 66 67 99 0 34 -47 83 -80 83 -25 0 -29 4 -32 33 -2
22 -10 35 -25 42 -17 7 -23 18 -23 42 0 22 -6 36 -19 43 -24 12 -19 12 -56 -5z"/>
<path d="M1605 1820 c-41 -42 -54 -50 -75 -45 -21 5 -16 -3 29 -49 56 -56 72
-65 51 -27 -9 18 -5 28 36 71 26 28 53 50 61 50 7 0 29 -15 49 -33 63 -57 57
-143 -15 -220 -37 -41 -73 -57 -125 -57 -83 0 -144 81 -116 154 17 45 2 45
-36 1 -37 -44 -41 -55 -20 -55 8 0 25 -19 38 -42 13 -23 42 -55 65 -72 81 -56
200 -35 267 48 25 30 31 48 34 99 4 57 1 66 -30 112 -34 52 -95 100 -138 110
-21 5 -34 -3 -75 -45z"/>
<path d="M5796 1724 c-28 -27 -18 -85 40 -233 30 -79 53 -152 51 -162 -7 -27
5 -23 38 11 25 26 26 30 9 30 -14 0 -26 17 -47 67 -15 36 -25 68 -23 70 2 3
35 -7 73 -20 57 -21 68 -29 66 -46 -4 -30 8 -26 50 17 41 42 47 56 18 47 -17
-5 -213 58 -238 78 -7 5 -15 25 -19 44 -6 30 -3 38 20 57 19 14 25 27 21 39
-9 21 -38 22 -59 1z"/>
<path d="M2241 1208 l-18 -43 26 -14 c36 -19 35 -19 21 -36 -9 -10 -17 -12
-30 -5 -19 10 -30 4 -30 -16 0 -10 49 -34 70 -34 4 0 13 14 20 30 19 46 42 31
29 -19 -8 -31 27 -21 43 12 17 36 10 57 -19 57 -7 0 -13 11 -13 26 0 23 3 25
31 19 26 -6 30 -4 27 10 -1 9 -18 23 -36 31 -32 13 -33 13 -49 -22 -17 -34
-40 -42 -35 -10 1 9 3 23 5 32 5 37 -24 24 -42 -18z"/>
<path d="M5107 1094 c-29 -15 -30 -23 -12 -66 5 -13 2 -18 -10 -18 -9 0 -19 9
-22 20 -3 11 -9 20 -14 20 -17 0 -21 -30 -9 -60 10 -25 17 -29 47 -27 40 2 58
-21 24 -30 -22 -6 -25 -11 -13 -30 5 -8 16 -8 41 3 29 12 32 17 26 41 -11 44
-11 45 1 50 6 2 16 -8 22 -22 8 -16 17 -23 27 -19 17 7 13 33 -11 72 -12 18
-18 20 -34 12 -28 -15 -40 -12 -40 10 0 12 7 20 16 20 9 0 14 7 12 17 -4 23
-18 25 -51 7z"/>
<path d="M3208 910 c21 -9 22 -14 22 -133 0 -119 -1 -124 -22 -135 -19 -9 -10
-11 47 -11 39 1 63 3 55 6 -24 9 -30 25 -30 80 l0 52 35 -6 c51 -8 120 20 135
57 27 66 -32 100 -172 99 -66 0 -86 -3 -70 -9z"/>
<path d="M3529 812 c-15 -13 -20 -25 -16 -36 9 -24 30 -15 37 15 5 20 12 24
40 24 l35 0 3 -73 c2 -69 1 -73 -24 -84 -50 -23 -86 30 -43 64 l24 19 -25 -7
c-57 -15 -78 -65 -42 -97 23 -21 33 -21 77 0 33 16 36 16 49 -2 12 -17 17 -18
42 -5 23 11 25 14 12 17 -15 4 -18 16 -18 74 0 56 -4 73 -20 89 -26 26 -99 27
-131 2z"/>
<path d="M3738 810 c20 -8 22 -16 22 -80 0 -57 4 -74 20 -90 25 -25 46 -25 88
0 40 25 42 25 42 -1 0 -16 4 -19 23 -13 12 3 29 10 37 15 13 7 12 8 -2 9 -16
0 -18 11 -18 85 l0 85 -42 -1 c-24 0 -36 -3 -28 -6 24 -9 30 -25 30 -80 0 -42
-4 -55 -22 -67 -27 -19 -59 -21 -76 -4 -7 7 -12 42 -12 85 l0 73 -42 -1 c-36
0 -39 -2 -20 -9z"/>
</g>
</svg>
